<mxfile host="app.diagrams.net" agent="Mozilla/5.0 (Windows NT 10.0; Win64; x64) AppleWebKit/537.36 (KHTML, like Gecko) Chrome/134.0.0.0 Safari/537.36 Edg/134.0.0.0" version="26.0.16">
  <diagram name="Страница — 1" id="HcBymUszkcmc0e52-K-Y">
    <mxGraphModel dx="856" dy="1621" grid="1" gridSize="10" guides="1" tooltips="1" connect="1" arrows="1" fold="1" page="1" pageScale="1" pageWidth="827" pageHeight="1169" math="0" shadow="0">
      <root>
        <mxCell id="0" />
        <mxCell id="1" parent="0" />
        <mxCell id="aN-_FmF5McJq0W527hce-25" style="edgeStyle=orthogonalEdgeStyle;rounded=0;orthogonalLoop=1;jettySize=auto;html=1;exitX=0.5;exitY=0;exitDx=0;exitDy=0;entryX=0.5;entryY=1;entryDx=0;entryDy=0;" parent="1" source="aN-_FmF5McJq0W527hce-9" target="aN-_FmF5McJq0W527hce-24" edge="1">
          <mxGeometry relative="1" as="geometry" />
        </mxCell>
        <mxCell id="aN-_FmF5McJq0W527hce-9" value="concrete&lt;div&gt;Bilder1&lt;/div&gt;" style="swimlane;fontStyle=0;childLayout=stackLayout;horizontal=1;startSize=30;horizontalStack=0;resizeParent=1;resizeParentMax=0;resizeLast=0;collapsible=1;marginBottom=0;whiteSpace=wrap;html=1;" parent="1" vertex="1">
          <mxGeometry x="50" y="160" width="100" height="150" as="geometry" />
        </mxCell>
        <mxCell id="aN-_FmF5McJq0W527hce-10" value="-result:Product1" style="text;strokeColor=none;fillColor=none;align=left;verticalAlign=middle;spacingLeft=4;spacingRight=4;overflow=hidden;points=[[0,0.5],[1,0.5]];portConstraint=eastwest;rotatable=0;whiteSpace=wrap;html=1;" parent="aN-_FmF5McJq0W527hce-9" vertex="1">
          <mxGeometry y="30" width="100" height="30" as="geometry" />
        </mxCell>
        <mxCell id="aN-_FmF5McJq0W527hce-11" value="+reset()&lt;div&gt;+buildStepA()&lt;/div&gt;&lt;div&gt;+buildStepB()&lt;/div&gt;&lt;div&gt;+buildStepZ()&lt;/div&gt;&lt;div&gt;+getResult():&lt;/div&gt;&lt;div&gt;Produkt1&lt;br&gt;&lt;div&gt;&lt;br&gt;&lt;/div&gt;&lt;/div&gt;" style="text;strokeColor=none;fillColor=none;align=center;verticalAlign=middle;spacingLeft=4;spacingRight=4;overflow=hidden;points=[[0,0.5],[1,0.5]];portConstraint=eastwest;rotatable=0;whiteSpace=wrap;html=1;" parent="aN-_FmF5McJq0W527hce-9" vertex="1">
          <mxGeometry y="60" width="100" height="90" as="geometry" />
        </mxCell>
        <mxCell id="aN-_FmF5McJq0W527hce-26" style="edgeStyle=orthogonalEdgeStyle;rounded=0;orthogonalLoop=1;jettySize=auto;html=1;exitX=0.5;exitY=0;exitDx=0;exitDy=0;" parent="1" source="aN-_FmF5McJq0W527hce-14" edge="1">
          <mxGeometry relative="1" as="geometry">
            <mxPoint x="170" y="90" as="targetPoint" />
          </mxGeometry>
        </mxCell>
        <mxCell id="aN-_FmF5McJq0W527hce-14" value="concrete&lt;div&gt;Bilder2&lt;/div&gt;" style="swimlane;fontStyle=0;childLayout=stackLayout;horizontal=1;startSize=30;horizontalStack=0;resizeParent=1;resizeParentMax=0;resizeLast=0;collapsible=1;marginBottom=0;whiteSpace=wrap;html=1;" parent="1" vertex="1">
          <mxGeometry x="180" y="160" width="100" height="150" as="geometry" />
        </mxCell>
        <mxCell id="aN-_FmF5McJq0W527hce-15" value="-result:Product2" style="text;strokeColor=none;fillColor=none;align=center;verticalAlign=middle;spacingLeft=4;spacingRight=4;overflow=hidden;points=[[0,0.5],[1,0.5]];portConstraint=eastwest;rotatable=0;whiteSpace=wrap;html=1;" parent="aN-_FmF5McJq0W527hce-14" vertex="1">
          <mxGeometry y="30" width="100" height="30" as="geometry" />
        </mxCell>
        <mxCell id="aN-_FmF5McJq0W527hce-16" value="&lt;div style=&quot;text-align: center;&quot;&gt;&lt;span style=&quot;background-color: transparent; color: light-dark(rgb(0, 0, 0), rgb(255, 255, 255));&quot;&gt;+reset()&lt;/span&gt;&lt;/div&gt;&lt;div style=&quot;text-align: center;&quot;&gt;+buildStepA()&lt;/div&gt;&lt;div style=&quot;text-align: center;&quot;&gt;+buildStepB()&lt;/div&gt;&lt;div style=&quot;text-align: center;&quot;&gt;+buildStepZ()&lt;/div&gt;&lt;div style=&quot;text-align: center;&quot;&gt;+getResult():&lt;/div&gt;&lt;div&gt;&lt;div style=&quot;text-align: center;&quot;&gt;&lt;span style=&quot;background-color: transparent; color: light-dark(rgb(0, 0, 0), rgb(255, 255, 255));&quot;&gt;Produkt2&lt;/span&gt;&lt;/div&gt;&lt;div&gt;&lt;br&gt;&lt;/div&gt;&lt;/div&gt;" style="text;strokeColor=none;fillColor=none;align=left;verticalAlign=middle;spacingLeft=4;spacingRight=4;overflow=hidden;points=[[0,0.5],[1,0.5]];portConstraint=eastwest;rotatable=0;whiteSpace=wrap;html=1;" parent="aN-_FmF5McJq0W527hce-14" vertex="1">
          <mxGeometry y="60" width="100" height="90" as="geometry" />
        </mxCell>
        <mxCell id="aN-_FmF5McJq0W527hce-17" value="Product1" style="rounded=0;whiteSpace=wrap;html=1;" parent="1" vertex="1">
          <mxGeometry x="50" y="340" width="100" height="60" as="geometry" />
        </mxCell>
        <mxCell id="aN-_FmF5McJq0W527hce-18" value="Product2" style="rounded=0;whiteSpace=wrap;html=1;" parent="1" vertex="1">
          <mxGeometry x="180" y="340" width="100" height="60" as="geometry" />
        </mxCell>
        <mxCell id="aN-_FmF5McJq0W527hce-20" value="" style="endArrow=classic;html=1;rounded=0;exitX=0.49;exitY=1.044;exitDx=0;exitDy=0;exitPerimeter=0;" parent="1" source="aN-_FmF5McJq0W527hce-11" edge="1">
          <mxGeometry width="50" height="50" relative="1" as="geometry">
            <mxPoint x="390" y="380" as="sourcePoint" />
            <mxPoint x="100" y="340" as="targetPoint" />
            <Array as="points">
              <mxPoint x="100" y="320" />
            </Array>
          </mxGeometry>
        </mxCell>
        <mxCell id="aN-_FmF5McJq0W527hce-21" value="" style="endArrow=classic;html=1;rounded=0;exitX=0.49;exitY=1.044;exitDx=0;exitDy=0;exitPerimeter=0;" parent="1" source="aN-_FmF5McJq0W527hce-11" edge="1">
          <mxGeometry width="50" height="50" relative="1" as="geometry">
            <mxPoint x="99" y="314" as="sourcePoint" />
            <mxPoint x="100" y="340" as="targetPoint" />
            <Array as="points" />
          </mxGeometry>
        </mxCell>
        <mxCell id="aN-_FmF5McJq0W527hce-23" value="" style="endArrow=classic;html=1;rounded=0;exitX=0.49;exitY=0.967;exitDx=0;exitDy=0;exitPerimeter=0;entryX=0.5;entryY=0;entryDx=0;entryDy=0;" parent="1" source="aN-_FmF5McJq0W527hce-16" target="aN-_FmF5McJq0W527hce-18" edge="1">
          <mxGeometry width="50" height="50" relative="1" as="geometry">
            <mxPoint x="390" y="380" as="sourcePoint" />
            <mxPoint x="440" y="330" as="targetPoint" />
          </mxGeometry>
        </mxCell>
        <mxCell id="aN-_FmF5McJq0W527hce-24" value="+reser()&lt;div&gt;+builkderStepA()&lt;/div&gt;&lt;div&gt;+builkderStepB()&lt;/div&gt;&lt;div&gt;+builkderStepZ()&lt;/div&gt;" style="rounded=0;whiteSpace=wrap;html=1;" parent="1" vertex="1">
          <mxGeometry x="110" y="30" width="120" height="60" as="geometry" />
        </mxCell>
        <mxCell id="aN-_FmF5McJq0W527hce-27" value="&quot;interface&quot;&lt;div&gt;&lt;b&gt;Builder&lt;/b&gt;&lt;/div&gt;" style="rounded=0;whiteSpace=wrap;html=1;" parent="1" vertex="1">
          <mxGeometry x="110" y="-30" width="120" height="60" as="geometry" />
        </mxCell>
        <mxCell id="aN-_FmF5McJq0W527hce-28" value="&lt;b&gt;Director&lt;/b&gt;" style="swimlane;fontStyle=0;childLayout=stackLayout;horizontal=1;startSize=30;horizontalStack=0;resizeParent=1;resizeParentMax=0;resizeLast=0;collapsible=1;marginBottom=0;whiteSpace=wrap;html=1;" parent="1" vertex="1">
          <mxGeometry x="290" y="-30" width="140" height="120" as="geometry" />
        </mxCell>
        <mxCell id="aN-_FmF5McJq0W527hce-29" value="-builder:Builder" style="text;strokeColor=none;fillColor=none;align=left;verticalAlign=middle;spacingLeft=4;spacingRight=4;overflow=hidden;points=[[0,0.5],[1,0.5]];portConstraint=eastwest;rotatable=0;whiteSpace=wrap;html=1;" parent="aN-_FmF5McJq0W527hce-28" vertex="1">
          <mxGeometry y="30" width="140" height="30" as="geometry" />
        </mxCell>
        <mxCell id="aN-_FmF5McJq0W527hce-30" value="+Directoer(builder)&lt;div&gt;+changeBuilder(builder)&lt;/div&gt;" style="text;strokeColor=none;fillColor=none;align=left;verticalAlign=middle;spacingLeft=4;spacingRight=4;overflow=hidden;points=[[0,0.5],[1,0.5]];portConstraint=eastwest;rotatable=0;whiteSpace=wrap;html=1;" parent="aN-_FmF5McJq0W527hce-28" vertex="1">
          <mxGeometry y="60" width="140" height="30" as="geometry" />
        </mxCell>
        <mxCell id="aN-_FmF5McJq0W527hce-31" value="+make(type)" style="text;strokeColor=none;fillColor=none;align=left;verticalAlign=middle;spacingLeft=4;spacingRight=4;overflow=hidden;points=[[0,0.5],[1,0.5]];portConstraint=eastwest;rotatable=0;whiteSpace=wrap;html=1;" parent="aN-_FmF5McJq0W527hce-28" vertex="1">
          <mxGeometry y="90" width="140" height="30" as="geometry" />
        </mxCell>
        <mxCell id="aN-_FmF5McJq0W527hce-32" value="&lt;b&gt;Client&lt;/b&gt;" style="rounded=0;whiteSpace=wrap;html=1;" parent="1" vertex="1">
          <mxGeometry x="200" y="-130" width="120" height="60" as="geometry" />
        </mxCell>
        <mxCell id="aN-_FmF5McJq0W527hce-33" style="edgeStyle=orthogonalEdgeStyle;rounded=0;orthogonalLoop=1;jettySize=auto;html=1;exitX=1;exitY=0.5;exitDx=0;exitDy=0;entryX=0.429;entryY=-0.025;entryDx=0;entryDy=0;entryPerimeter=0;" parent="1" source="aN-_FmF5McJq0W527hce-32" target="aN-_FmF5McJq0W527hce-28" edge="1">
          <mxGeometry relative="1" as="geometry" />
        </mxCell>
        <mxCell id="aN-_FmF5McJq0W527hce-34" style="edgeStyle=orthogonalEdgeStyle;rounded=0;orthogonalLoop=1;jettySize=auto;html=1;entryX=1;entryY=0.75;entryDx=0;entryDy=0;" parent="1" source="aN-_FmF5McJq0W527hce-29" target="aN-_FmF5McJq0W527hce-27" edge="1">
          <mxGeometry relative="1" as="geometry" />
        </mxCell>
        <mxCell id="aN-_FmF5McJq0W527hce-45" value="" style="endArrow=none;dashed=1;html=1;dashPattern=1 3;strokeWidth=2;rounded=0;entryX=0;entryY=0.5;entryDx=0;entryDy=0;" parent="1" target="aN-_FmF5McJq0W527hce-32" edge="1">
          <mxGeometry width="50" height="50" relative="1" as="geometry">
            <mxPoint x="50" y="-100" as="sourcePoint" />
            <mxPoint x="190" y="-100" as="targetPoint" />
          </mxGeometry>
        </mxCell>
        <mxCell id="aN-_FmF5McJq0W527hce-48" value="" style="endArrow=none;dashed=1;html=1;dashPattern=1 3;strokeWidth=2;rounded=0;entryX=0;entryY=0.5;entryDx=0;entryDy=0;" parent="1" target="aN-_FmF5McJq0W527hce-32" edge="1">
          <mxGeometry width="50" height="50" relative="1" as="geometry">
            <mxPoint x="50" y="-100" as="sourcePoint" />
            <mxPoint x="200" y="-100" as="targetPoint" />
          </mxGeometry>
        </mxCell>
        <mxCell id="aN-_FmF5McJq0W527hce-49" value="" style="endArrow=none;dashed=1;html=1;dashPattern=1 3;strokeWidth=2;rounded=0;entryX=0;entryY=0.5;entryDx=0;entryDy=0;" parent="1" target="aN-_FmF5McJq0W527hce-32" edge="1">
          <mxGeometry width="50" height="50" relative="1" as="geometry">
            <mxPoint x="50" y="-100" as="sourcePoint" />
            <mxPoint x="200" y="-100" as="targetPoint" />
          </mxGeometry>
        </mxCell>
        <mxCell id="aN-_FmF5McJq0W527hce-50" value="" style="endArrow=none;dashed=1;html=1;dashPattern=1 3;strokeWidth=2;rounded=0;" parent="1" edge="1">
          <mxGeometry width="50" height="50" relative="1" as="geometry">
            <mxPoint x="50" y="150" as="sourcePoint" />
            <mxPoint x="50" y="-100" as="targetPoint" />
          </mxGeometry>
        </mxCell>
      </root>
    </mxGraphModel>
  </diagram>
</mxfile>
